<svg preserveAspectRatio="xMidYMid meet" data-bbox="18.5 51.538 163 96.925" viewBox="18.5 51.538 163 96.925" height="200" width="200"
    xmlns="http://www.w3.org/2000/svg" data-type="color" role="presentation" aria-hidden="true" aria-labelledby="svgcid-qs01ru-ms6g28">
    <defs>
        <style>#comp-kh96iesp svg [data-color="1"] {fill: #9E3A00;}</style>
    </defs>
    <title id="svgcid-qs01ru-ms6g28"></title>
    <g>
        <path d="M176 51.538H90.075a5.506 5.506 0 0 0-5.5 5.5v85.925c0 3.033 2.467 5.5 5.5 5.5H176c3.032 0 5.5-2.467 5.5-5.5V57.038c0-3.033-2.468-5.5-5.5-5.5zm2.5 91.424c0 1.378-1.121 2.5-2.5 2.5H90.075a2.503 2.503 0 0 1-2.5-2.5V57.038c0-1.378 1.121-2.5 2.5-2.5h28.218v40.979c0 .92 1.069 1.428 1.782.847l12.272-10a1.093 1.093 0 0 1 1.38 0l12.272 10a1.092 1.092 0 0 0 1.782-.847V54.538H176c1.379 0 2.5 1.122 2.5 2.5v85.924z" fill="#00BFB2" data-color="1"></path>
        <path d="M73.516 70.65H60.409a1.5 1.5 0 1 0 0 3h13.106a1.5 1.5 0 0 0 .001-3z" fill="#00BFB2" data-color="1"></path>
        <path d="M61.909 87.44a1.5 1.5 0 0 0-1.5-1.5H20a1.5 1.5 0 1 0 0 3h40.409a1.5 1.5 0 0 0 1.5-1.5z" fill="#00BFB2" data-color="1"></path>
        <path d="M65.87 101.23H34.744a1.5 1.5 0 1 0 0 3H65.87a1.5 1.5 0 1 0 0-3z" fill="#00BFB2" data-color="1"></path>
        <path d="M57.679 116.521H26.553a1.5 1.5 0 1 0 0 3h31.126a1.5 1.5 0 1 0 0-3z" fill="#00BFB2" data-color="1"></path>
    </g>
</svg>


